<svg width="363" height="396" viewBox="0 0 363 396" fill="none" xmlns="http://www.w3.org/2000/svg">
<path d="M132.059 331.269H232.029C237.414 331.269 241.776 335.631 241.776 341.016C241.776 346.399 237.414 350.763 232.029 350.763H132.059C126.676 350.763 122.312 346.399 122.312 341.016C122.312 335.631 126.676 331.269 132.059 331.269Z" fill="#E6E7E8" stroke="black" stroke-width="0.5"/>
<path d="M152.053 353.25H212.035C217.42 353.25 221.782 357.612 221.782 362.997C221.782 368.38 217.42 372.744 212.035 372.744H152.053C146.67 372.744 142.306 368.38 142.306 362.997C142.306 357.612 146.67 353.25 152.053 353.25Z" fill="#E6E7E8" stroke="black" stroke-width="0.5"/>
<path d="M112.065 171.067H132.059V191.061H112.065V171.067Z" fill="white"/>
<path d="M172 105.286V311H192V105.286V71H172V105.286Z" fill="white"/>
<path d="M232.029 171.067H252.023V191.061H232.029V171.067Z" fill="white"/>
<path d="M180.702 146.991V166.543V273.974V274.537C180.696 283.838 177.09 292.775 170.64 299.477C164.19 306.178 155.397 310.122 146.103 310.483C136.809 310.844 127.736 307.593 120.786 301.412C113.836 295.232 109.548 286.6 108.821 277.328C104.53 276.701 100.417 275.184 96.7465 272.875C93.0758 270.566 89.9281 267.515 87.5052 263.919C85.0824 260.322 83.4379 256.259 82.6771 251.989C81.9163 247.72 82.056 243.339 83.0873 239.126C76.4483 234.21 71.0741 227.785 67.4084 220.381C63.7426 212.978 61.8905 204.809 62.005 196.548C62.1195 188.288 64.1972 180.173 68.0667 172.874C71.9361 165.575 77.4863 159.301 84.259 154.57C82.8904 151.028 82.1902 147.263 82.1936 143.465C82.1956 135.988 84.8865 128.761 89.7749 123.104C94.6633 117.446 101.423 113.735 108.821 112.648C109.548 103.376 113.836 94.7447 120.785 88.5639C127.735 82.3832 136.808 79.1323 146.101 79.4927C155.395 79.8531 164.188 83.7968 170.638 90.4972C177.089 97.1976 180.695 106.135 180.702 115.435V120.212V126.531V140.672V146.991Z" fill="#58A5EF"/>
<path d="M117.243 165.296C117.243 164.458 116.91 163.654 116.318 163.062C115.725 162.469 114.922 162.136 114.084 162.136C104.773 162.149 95.8478 165.854 89.2651 172.439C82.6824 179.023 78.9797 187.949 78.9692 197.26C78.9692 197.675 79.051 198.086 79.2097 198.469C79.3685 198.852 79.6012 199.201 79.8946 199.494C80.188 199.787 80.5363 200.02 80.9196 200.179C81.3029 200.338 81.7137 200.419 82.1286 200.419C82.5435 200.419 82.9544 200.338 83.3377 200.179C83.721 200.02 84.0693 199.787 84.3627 199.494C84.656 199.201 84.8888 198.852 85.0475 198.469C85.2063 198.086 85.288 197.675 85.288 197.26C85.2966 189.624 88.3332 182.304 93.7317 176.904C99.1302 171.504 106.45 168.466 114.085 168.455C114.923 168.455 115.726 168.122 116.318 167.529C116.91 166.937 117.243 166.134 117.243 165.296V165.296Z" fill="white"/>
<path d="M144.706 97.7931C139.845 97.7988 135.185 99.7324 131.748 103.17C128.31 106.607 126.377 111.267 126.371 116.128C126.371 116.966 126.704 117.77 127.296 118.362C127.889 118.955 128.693 119.288 129.53 119.288C130.368 119.288 131.172 118.955 131.765 118.362C132.357 117.77 132.69 116.966 132.69 116.128C132.69 112.941 133.956 109.885 136.21 107.631C138.463 105.377 141.52 104.111 144.707 104.111C147.895 104.111 150.951 105.377 153.205 107.631C155.459 109.885 156.725 112.941 156.725 116.128C156.725 116.966 157.058 117.77 157.65 118.362C158.243 118.955 159.046 119.288 159.884 119.288C160.722 119.288 161.526 118.955 162.118 118.362C162.711 117.77 163.044 116.966 163.044 116.128C163.038 111.267 161.104 106.606 157.666 103.169C154.229 99.7317 149.568 97.7984 144.706 97.7931V97.7931Z" fill="white"/>
<path d="M126.77 143.982H128.124C132.245 143.986 136.196 145.625 139.109 148.539C142.023 151.453 143.662 155.403 143.666 159.524V169.737C143.662 173.858 142.023 177.809 139.109 180.722C136.196 183.636 132.245 185.275 128.124 185.28C127.286 185.28 126.482 185.612 125.89 186.205C125.297 186.797 124.965 187.601 124.965 188.439C124.965 189.277 125.297 190.08 125.89 190.673C126.482 191.265 127.286 191.598 128.124 191.598C133.92 191.592 139.477 189.286 143.575 185.188C147.673 181.09 149.979 175.533 149.985 169.737V159.524C149.979 153.728 147.673 148.172 143.575 144.073C139.477 139.975 133.92 137.67 128.124 137.663H126.77C125.932 137.663 125.128 137.996 124.536 138.588C123.943 139.181 123.611 139.984 123.611 140.822C123.611 141.66 123.943 142.464 124.536 143.056C125.128 143.649 125.932 143.982 126.77 143.982Z" fill="white"/>
<path d="M146.851 223.418C147.689 223.418 148.493 223.085 149.085 222.493C149.678 221.9 150.01 221.096 150.01 220.258C150.01 219.421 149.678 218.617 149.085 218.024C148.493 217.432 147.689 217.099 146.851 217.099H128.797C123.951 217.094 119.305 215.166 115.878 211.739C112.451 208.312 110.523 203.666 110.518 198.82C110.518 197.982 110.185 197.178 109.593 196.586C109 195.993 108.197 195.66 107.359 195.66C106.521 195.66 105.717 195.993 105.125 196.586C104.532 197.178 104.199 197.982 104.199 198.82C104.207 205.341 106.801 211.593 111.412 216.205C116.024 220.816 122.276 223.41 128.797 223.418H146.851Z" fill="white"/>
<path d="M158.36 260.879C152.377 260.873 146.641 258.493 142.41 254.262C138.18 250.032 135.8 244.295 135.793 238.312C135.793 237.474 135.46 236.671 134.868 236.078C134.275 235.486 133.472 235.153 132.634 235.153C131.796 235.153 130.992 235.486 130.4 236.078C129.807 236.671 129.474 237.474 129.474 238.312C129.483 245.971 132.529 253.313 137.944 258.728C143.36 264.143 150.702 267.19 158.36 267.198C159.198 267.198 160.002 266.865 160.594 266.273C161.187 265.68 161.52 264.877 161.52 264.039C161.52 263.201 161.187 262.397 160.594 261.805C160.002 261.212 159.198 260.879 158.36 260.879V260.879Z" fill="white"/>
<path d="M113.533 254.302C111.001 253.92 108.724 252.55 107.201 250.491C105.678 248.432 105.033 245.853 105.409 243.32C105.476 242.907 105.461 242.485 105.364 242.078C105.267 241.671 105.09 241.287 104.844 240.949C104.597 240.611 104.286 240.326 103.928 240.109C103.571 239.892 103.173 239.748 102.759 239.686C102.346 239.624 101.924 239.645 101.518 239.747C101.112 239.85 100.731 240.032 100.396 240.282C100.061 240.533 99.7798 240.848 99.5677 241.209C99.3555 241.57 99.2172 241.969 99.1606 242.383C98.5385 246.574 99.6038 250.84 102.123 254.246C104.642 257.652 108.409 259.92 112.598 260.552C112.754 260.575 112.911 260.587 113.069 260.587C113.867 260.587 114.635 260.285 115.219 259.742C115.803 259.199 116.161 258.455 116.22 257.66C116.278 256.865 116.034 256.076 115.536 255.454C115.037 254.831 114.322 254.42 113.533 254.302V254.302Z" fill="white"/>
<path d="M145.497 287.667C141.907 287.664 138.465 286.236 135.927 283.697C133.388 281.159 131.961 277.717 131.957 274.127C131.957 273.289 131.624 272.486 131.031 271.893C130.439 271.301 129.635 270.968 128.797 270.968C127.959 270.968 127.156 271.301 126.563 271.893C125.971 272.486 125.638 273.289 125.638 274.127C125.644 279.392 127.738 284.44 131.461 288.163C135.184 291.886 140.232 293.98 145.497 293.986C146.335 293.986 147.139 293.653 147.731 293.061C148.324 292.468 148.656 291.665 148.656 290.827C148.656 289.989 148.324 289.185 147.731 288.593C147.139 288 146.335 287.667 145.497 287.667Z" fill="white"/>
<mask id="path-15-inside-1" fill="white">
<path fill-rule="evenodd" clip-rule="evenodd" d="M241.389 309H187V79.004C187.283 79.0014 187.566 79 187.848 79H187.873C213.089 79.0034 238.296 89.3778 257.472 110.097C295.626 151.326 295.493 217.945 257.171 258.994C247.078 269.662 241.393 284.234 241.389 299.444V309Z"/>
</mask>
<path fill-rule="evenodd" clip-rule="evenodd" d="M241.389 309H187V79.004C187.283 79.0014 187.566 79 187.848 79H187.873C213.089 79.0034 238.296 89.3778 257.472 110.097C295.626 151.326 295.493 217.945 257.171 258.994C247.078 269.662 241.393 284.234 241.389 299.444V309Z" fill="#E6E7E8"/>
<path d="M241.389 309V309.5H241.889V309H241.389ZM187 309H186.5V309.5H187V309ZM187 79.004L186.995 78.5041L186.5 78.5087V79.004H187ZM187.848 79L187.848 78.5L187.848 78.5L187.848 79ZM187.873 79L187.873 78.5H187.873V79ZM257.472 110.097L257.839 109.757L257.839 109.757L257.472 110.097ZM257.171 258.994L257.534 259.337L257.537 259.335L257.171 258.994ZM241.389 299.444L240.889 299.444V299.444H241.389ZM241.389 308.5H187V309.5H241.389V308.5ZM187.5 309V79.004H186.5V309H187.5ZM187.005 79.504C187.286 79.5014 187.567 79.5 187.849 79.5L187.848 78.5C187.564 78.5 187.28 78.5014 186.995 78.5041L187.005 79.504ZM187.848 79.5H187.873V78.5H187.848V79.5ZM187.873 79.5C212.949 79.5034 238.023 89.8195 257.105 110.437L257.839 109.757C238.568 88.936 213.228 78.5034 187.873 78.5L187.873 79.5ZM257.105 110.437C295.081 151.473 294.948 217.795 256.806 258.653L257.537 259.335C296.037 218.094 296.17 151.179 257.839 109.757L257.105 110.437ZM256.808 258.65C246.623 269.415 240.893 284.111 240.889 299.444L241.889 299.444C241.893 284.356 247.532 269.909 257.534 259.337L256.808 258.65ZM240.889 299.444V309H241.889V299.444H240.889Z" fill="black" mask="url(#path-15-inside-1)"/>
<path d="M210.321 109.012C210.551 108.996 210.782 108.996 211.012 109.012C233.881 109.012 252.419 126.309 252.419 147.646C252.419 150.051 250.33 152 247.753 152C245.186 151.987 243.112 150.041 243.112 147.646C243.127 131.118 228.778 117.709 211.063 117.696C211.046 117.696 211.029 117.696 211.012 117.696C208.442 117.874 206.204 116.074 206.013 113.676C205.822 111.278 207.751 109.19 210.321 109.012Z" fill="#BDBDBD"/>
<path d="M163.25 376.25H200.75C202.359 376.25 203.853 377.293 204.958 379.06C206.06 380.823 206.75 383.275 206.75 385.997C206.75 388.718 206.06 391.17 204.958 392.933C203.853 394.7 202.359 395.744 200.75 395.744H163.25C161.642 395.744 160.147 394.7 159.043 392.933C157.94 391.17 157.25 388.718 157.25 385.997C157.25 383.275 157.94 380.823 159.043 379.06C160.147 377.293 161.641 376.25 163.25 376.25Z" fill="#E6E7E8" stroke="black" stroke-width="0.5"/>
<path d="M330.142 90.5886L330.147 90.5861C332.345 89.3079 335.164 90.054 336.442 92.2521C337.72 94.4494 336.975 97.2666 334.779 98.5463C334.778 98.5468 334.777 98.5473 334.776 98.5478L302.529 117.188L302.524 117.191C300.326 118.469 297.507 117.723 296.229 115.525C294.951 113.327 295.696 110.509 297.893 109.23C297.894 109.23 297.894 109.23 297.895 109.229L330.142 90.5886Z" fill="#E6E7E8" stroke="white" stroke-width="4"/>
<path d="M302.529 246.85L302.524 246.847C300.326 245.569 297.507 246.315 296.229 248.513C294.951 250.711 295.696 253.529 297.893 254.807C297.894 254.808 297.894 254.808 297.895 254.809L330.142 273.449L330.147 273.452C332.345 274.73 335.164 273.984 336.442 271.786L302.529 246.85ZM302.529 246.85L334.776 265.49M302.529 246.85L334.776 265.49M334.776 265.49C334.777 265.491 334.778 265.491 334.779 265.492M334.776 265.49L334.779 265.492M334.779 265.492C336.975 266.77 337.72 269.587 336.442 271.786L334.779 265.492Z" fill="#E6E7E8" stroke="white" stroke-width="4"/>
<path d="M31.8863 90.5861L31.8907 90.5886L64.1382 109.229C64.1389 109.23 64.1396 109.23 64.1404 109.231C66.3367 110.509 67.0821 113.326 65.804 115.525C64.5259 117.723 61.707 118.469 59.5087 117.191L59.5043 117.188L27.2568 98.5476C27.2561 98.5472 27.2554 98.5468 27.2547 98.5464C25.0582 97.2678 24.313 94.4498 25.5908 92.2521C26.8688 90.054 29.6879 89.3079 31.8863 90.5861Z" fill="#F2C94C" stroke="white" stroke-width="4"/>
<path d="M176.407 6.29879L176.408 6.29701C176.597 3.74065 178.823 1.82315 181.378 2.01307C183.933 2.20298 185.852 4.42866 185.662 6.98522L185.657 7.05898V7.13295V44.3457C185.657 46.9069 183.583 48.9828 181.022 48.9858C178.484 48.9688 176.43 46.9145 176.413 44.3762V7.13204V7.05693L176.407 6.98204C176.39 6.75445 176.39 6.52638 176.407 6.29879Z" fill="#E6E7E8" stroke="white" stroke-width="4"/>
<path d="M116.17 60.4928L116.167 60.487L97.5635 28.2409C97.563 28.24 97.5625 28.2391 97.5619 28.2381C96.2831 26.0422 93.4655 25.2973 91.268 26.5749C89.0699 27.853 88.3238 30.6721 89.602 32.8704L89.6054 32.8763L89.6054 32.8763L108.209 65.1223C108.209 65.1233 108.21 65.1242 108.211 65.1252C109.489 67.3209 112.307 68.0659 114.504 66.7885L116.17 60.4928ZM116.17 60.4928C117.448 62.6908 116.703 65.5091 114.504 66.7883L116.17 60.4928Z" fill="#F2C94C" stroke="white" stroke-width="4"/>
<path d="M360.019 181.638L360.019 181.638C360.207 184.172 358.325 186.381 355.804 186.603H318.634H318.559L318.484 186.609C318.257 186.626 318.028 186.626 317.8 186.609L317.798 186.609C315.242 186.419 313.324 184.194 313.514 181.638C313.704 179.082 315.929 177.164 318.485 177.354L318.559 177.36H318.633H355.803C358.063 177.56 359.851 179.369 360.019 181.638Z" fill="#E6E7E8" stroke="white" stroke-width="4"/>
<path d="M44.2322 177.392L44.2345 177.392C46.79 177.581 48.7079 179.806 48.5179 182.362C48.328 184.919 46.1028 186.836 43.5472 186.646L43.4732 186.641H43.399H6.2295C3.96934 186.44 2.18159 184.631 2.01307 182.362L2.01306 182.362C1.82483 179.83 3.70714 177.621 6.22953 177.397H43.399H43.4741L43.549 177.391C43.7765 177.374 44.0046 177.374 44.2322 177.392Z" fill="#F2C94C" stroke="white" stroke-width="4"/>
<path d="M246.041 60.4998L246.041 60.4998L246.048 60.4884L264.689 28.2409C264.689 28.2401 264.689 28.2393 264.69 28.2386C265.969 26.0423 268.786 25.2972 270.984 26.5749C273.182 27.8529 273.928 30.6712 272.65 32.8707L272.648 32.8748L254.015 65.108C254.015 65.108 254.015 65.1081 254.015 65.1081C254.009 65.1179 253.998 65.1363 253.984 65.1604C252.703 67.3449 249.898 68.0837 247.707 66.8146C247.699 66.8101 247.689 66.8042 247.678 66.7973C245.488 65.51 244.755 62.6915 246.041 60.4998Z" fill="#E6E7E8" stroke="white" stroke-width="4"/>
<path d="M59.5043 246.813L59.5087 246.811C61.707 245.532 64.5261 246.279 65.8042 248.477C67.0818 250.674 66.337 253.492 64.1398 254.771C64.1392 254.772 64.1385 254.772 64.1378 254.772L31.8907 273.413L31.8863 273.416C29.6879 274.694 26.8688 273.948 25.5908 271.75C24.313 269.552 25.0582 266.734 27.2545 265.455C27.2553 265.455 27.256 265.454 27.2568 265.454L59.5043 246.813Z" fill="#F2C94C" stroke="white" stroke-width="4"/>
</svg>
