<svg width="363" height="396" viewBox="0 0 363 396" fill="none" xmlns="http://www.w3.org/2000/svg">
<path d="M132.059 331.269H232.029C237.414 331.269 241.776 335.631 241.776 341.016C241.776 346.399 237.414 350.763 232.029 350.763H132.059C126.676 350.763 122.312 346.399 122.312 341.016C122.312 335.631 126.676 331.269 132.059 331.269Z" fill="#E6E7E8" stroke="black" stroke-width="0.5"/>
<path d="M152.053 353.25H212.035C217.42 353.25 221.782 357.612 221.782 362.997C221.782 368.38 217.42 372.744 212.035 372.744H152.053C146.67 372.744 142.306 368.38 142.306 362.997C142.306 357.612 146.67 353.25 152.053 353.25Z" fill="#E6E7E8" stroke="black" stroke-width="0.5"/>
<path d="M112.065 171.067H132.059V191.061H112.065V171.067Z" fill="white"/>
<path d="M172 105.286V311H192V105.286V71H172V105.286Z" fill="white"/>
<path d="M232.029 171.067H252.023V191.061H232.029V171.067Z" fill="white"/>
<mask id="path-7-inside-1" fill="white">
<path fill-rule="evenodd" clip-rule="evenodd" d="M117.611 306H172V76.004C171.717 76.0014 171.434 76 171.152 76H171.127C145.911 76.0034 120.704 86.3778 101.528 107.097C63.3744 148.326 63.5072 214.945 101.829 255.994C111.922 266.662 117.607 281.234 117.611 296.444V306Z"/>
</mask>
<path fill-rule="evenodd" clip-rule="evenodd" d="M117.611 306H172V76.004C171.717 76.0014 171.434 76 171.152 76H171.127C145.911 76.0034 120.704 86.3778 101.528 107.097C63.3744 148.326 63.5072 214.945 101.829 255.994C111.922 266.662 117.607 281.234 117.611 296.444V306Z" fill="#E6E7E8"/>
<path d="M117.611 306V306.5H117.111V306H117.611ZM172 306H172.5V306.5H172V306ZM172 76.004L172.005 75.5041L172.5 75.5087V76.004H172ZM171.152 76L171.152 75.5L171.152 75.5L171.152 76ZM171.127 76L171.127 75.5H171.127V76ZM101.528 107.097L101.161 106.757L101.161 106.757L101.528 107.097ZM101.829 255.994L101.466 256.337L101.463 256.335L101.829 255.994ZM117.611 296.444L118.111 296.444V296.444H117.611ZM117.611 305.5H172V306.5H117.611V305.5ZM171.5 306V76.004H172.5V306H171.5ZM171.995 76.504C171.714 76.5014 171.433 76.5 171.151 76.5L171.152 75.5C171.436 75.5 171.72 75.5014 172.005 75.5041L171.995 76.504ZM171.152 76.5H171.127V75.5H171.152V76.5ZM171.127 76.5C146.051 76.5034 120.977 86.8195 101.895 107.437L101.161 106.757C120.432 85.936 145.772 75.5034 171.127 75.5L171.127 76.5ZM101.895 107.437C63.9192 148.473 64.0516 214.795 102.194 255.653L101.463 256.335C62.9628 215.094 62.8295 148.179 101.161 106.757L101.895 107.437ZM102.192 255.65C112.377 266.415 118.107 281.111 118.111 296.444L117.111 296.444C117.107 281.356 111.468 266.909 101.466 256.337L102.192 255.65ZM118.111 296.444V306H117.111V296.444H118.111Z" fill="black" mask="url(#path-7-inside-1)"/>
<path d="M152.098 103.012C151.868 102.996 151.637 102.996 151.407 103.012C128.538 103.012 110 120.309 110 141.646C110 144.051 112.089 146 114.666 146C117.233 145.987 119.307 144.041 119.307 141.646C119.293 125.118 133.642 111.709 151.356 111.696C151.373 111.696 151.39 111.696 151.407 111.696C153.978 111.874 156.215 110.074 156.406 107.676C156.597 105.278 154.669 103.19 152.098 103.012Z" fill="#BDBDBD"/>
<path d="M178 145.344V164.553V270.103V270.657C178.006 279.795 181.548 288.576 187.885 295.16C194.223 301.743 202.862 305.619 211.993 305.973C221.124 306.328 230.038 303.134 236.867 297.062C243.695 290.989 247.908 282.509 248.623 273.399C252.839 272.783 256.879 271.293 260.486 269.024C264.092 266.755 267.185 263.758 269.565 260.224C271.946 256.69 273.561 252.698 274.309 248.504C275.056 244.309 274.919 240.004 273.906 235.866C280.429 231.035 285.709 224.723 289.31 217.449C292.912 210.175 294.732 202.149 294.619 194.033C294.507 185.917 292.465 177.944 288.664 170.773C284.862 163.602 279.409 157.438 272.755 152.79C274.099 149.31 274.787 145.61 274.784 141.879C274.782 134.533 272.138 127.433 267.335 121.874C262.532 116.315 255.891 112.669 248.623 111.601C247.908 102.491 243.696 94.0116 236.868 87.939C230.04 81.8664 221.126 78.6725 211.995 79.0266C202.864 79.3807 194.225 83.2553 187.887 89.8384C181.55 96.4215 178.007 105.202 178 114.34V119.033V125.241V139.135V145.344Z" fill="#D73964"/>
<path d="M240.348 163.328C240.348 162.505 240.675 161.715 241.257 161.133C241.839 160.551 242.629 160.224 243.452 160.224C252.599 160.236 261.369 163.877 267.836 170.346C274.304 176.815 277.941 185.585 277.952 194.732C277.952 195.14 277.871 195.544 277.715 195.92C277.559 196.297 277.331 196.639 277.042 196.927C276.754 197.216 276.412 197.444 276.035 197.6C275.659 197.756 275.255 197.836 274.848 197.836C274.44 197.836 274.036 197.756 273.66 197.6C273.283 197.444 272.941 197.216 272.653 196.927C272.364 196.639 272.136 196.297 271.98 195.92C271.824 195.544 271.743 195.14 271.743 194.732C271.735 187.23 268.752 180.038 263.448 174.733C258.144 169.427 250.952 166.442 243.45 166.432C242.627 166.431 241.838 166.104 241.256 165.522C240.675 164.94 240.348 164.151 240.348 163.328V163.328Z" fill="white"/>
<path d="M213.365 97.0067C218.141 97.0123 222.72 98.912 226.097 102.289C229.474 105.666 231.374 110.245 231.38 115.021C231.38 115.844 231.053 116.634 230.47 117.216C229.888 117.798 229.099 118.125 228.276 118.125C227.452 118.125 226.663 117.798 226.081 117.216C225.498 116.634 225.171 115.844 225.171 115.021C225.171 111.89 223.927 108.886 221.713 106.672C219.499 104.458 216.496 103.214 213.364 103.214C210.233 103.214 207.23 104.458 205.016 106.672C202.801 108.886 201.557 111.89 201.557 115.021C201.557 115.844 201.23 116.634 200.648 117.216C200.066 117.798 199.276 118.125 198.453 118.125C197.63 118.125 196.84 117.798 196.258 117.216C195.676 116.634 195.349 115.844 195.349 115.021C195.355 110.245 197.255 105.666 200.632 102.289C204.01 98.9114 208.589 97.0118 213.365 97.0067V97.0067Z" fill="white"/>
<path d="M230.988 142.387H229.657C225.609 142.391 221.727 144.001 218.864 146.864C216.001 149.727 214.391 153.608 214.387 157.657V167.691C214.391 171.74 216.001 175.621 218.864 178.484C221.727 181.347 225.609 182.957 229.657 182.962C230.481 182.962 231.27 183.289 231.852 183.871C232.434 184.453 232.761 185.242 232.761 186.066C232.761 186.889 232.434 187.678 231.852 188.261C231.27 188.843 230.481 189.17 229.657 189.17C223.963 189.163 218.504 186.898 214.477 182.872C210.45 178.845 208.185 173.386 208.179 167.691V157.657C208.185 151.963 210.45 146.503 214.477 142.477C218.504 138.45 223.963 136.185 229.657 136.178H230.988C231.811 136.178 232.6 136.506 233.183 137.088C233.765 137.67 234.092 138.459 234.092 139.283C234.092 140.106 233.765 140.895 233.183 141.477C232.6 142.06 231.811 142.387 230.988 142.387Z" fill="white"/>
<path d="M211.258 220.432C210.435 220.432 209.645 220.105 209.063 219.523C208.481 218.941 208.154 218.152 208.154 217.328C208.154 216.505 208.481 215.715 209.063 215.133C209.645 214.551 210.435 214.224 211.258 214.224H228.996C233.757 214.219 238.322 212.325 241.689 208.958C245.056 205.591 246.95 201.026 246.955 196.265C246.955 195.442 247.282 194.652 247.864 194.07C248.446 193.488 249.236 193.161 250.059 193.161C250.882 193.161 251.672 193.488 252.254 194.07C252.836 194.652 253.163 195.442 253.163 196.265C253.156 202.672 250.607 208.815 246.077 213.346C241.546 217.876 235.403 220.425 228.996 220.432H211.258Z" fill="white"/>
<path d="M199.95 257.238C205.829 257.232 211.464 254.893 215.621 250.737C219.778 246.58 222.116 240.944 222.122 235.066C222.122 234.243 222.449 233.453 223.032 232.871C223.614 232.289 224.403 231.962 225.226 231.962C226.05 231.962 226.839 232.289 227.421 232.871C228.004 233.453 228.331 234.243 228.331 235.066C228.322 242.59 225.329 249.804 220.009 255.125C214.688 260.445 207.475 263.438 199.95 263.446C199.127 263.446 198.338 263.119 197.755 262.537C197.173 261.955 196.846 261.165 196.846 260.342C196.846 259.519 197.173 258.729 197.755 258.147C198.338 257.565 199.127 257.238 199.95 257.238V257.238Z" fill="white"/>
<path d="M243.993 250.776C246.481 250.401 248.718 249.054 250.215 247.031C251.711 245.009 252.344 242.475 251.975 239.986C251.909 239.581 251.924 239.166 252.019 238.766C252.114 238.366 252.288 237.989 252.53 237.657C252.772 237.325 253.078 237.044 253.43 236.831C253.781 236.618 254.172 236.477 254.578 236.416C254.985 236.355 255.399 236.375 255.798 236.476C256.196 236.576 256.571 236.755 256.9 237.002C257.229 237.248 257.506 237.558 257.714 237.912C257.922 238.266 258.058 238.658 258.114 239.066C258.725 243.183 257.678 247.374 255.204 250.721C252.729 254.067 249.027 256.296 244.912 256.917C244.759 256.939 244.604 256.95 244.449 256.951C243.665 256.951 242.911 256.654 242.336 256.121C241.762 255.587 241.411 254.857 241.354 254.075C241.296 253.294 241.536 252.519 242.025 251.907C242.515 251.295 243.218 250.891 243.993 250.776V250.776Z" fill="white"/>
<path d="M212.589 283.557C216.116 283.553 219.497 282.151 221.991 279.657C224.485 277.163 225.888 273.781 225.892 270.254C225.892 269.431 226.219 268.641 226.801 268.059C227.383 267.477 228.173 267.15 228.996 267.15C229.819 267.15 230.609 267.477 231.191 268.059C231.773 268.641 232.1 269.431 232.1 270.254C232.094 275.427 230.037 280.387 226.379 284.044C222.721 287.702 217.762 289.76 212.589 289.765C211.765 289.765 210.976 289.438 210.394 288.856C209.812 288.274 209.485 287.485 209.485 286.661C209.485 285.838 209.812 285.049 210.394 284.466C210.976 283.884 211.765 283.557 212.589 283.557Z" fill="white"/>
<path d="M163.25 376.25H200.75C202.359 376.25 203.853 377.293 204.958 379.06C206.06 380.823 206.75 383.275 206.75 385.997C206.75 388.718 206.06 391.17 204.958 392.933C203.853 394.7 202.359 395.744 200.75 395.744H163.25C161.642 395.744 160.147 394.7 159.043 392.933C157.94 391.17 157.25 388.718 157.25 385.997C157.25 383.275 157.94 380.823 159.043 379.06C160.147 377.293 161.641 376.25 163.25 376.25Z" fill="#E6E7E8" stroke="black" stroke-width="0.5"/>
<path d="M330.142 90.5886L330.147 90.5861C332.345 89.3079 335.164 90.054 336.442 92.2521C337.72 94.4494 336.975 97.2666 334.779 98.5463C334.778 98.5468 334.777 98.5473 334.776 98.5478L302.529 117.188L302.524 117.191C300.326 118.469 297.507 117.723 296.229 115.525C294.951 113.327 295.696 110.509 297.893 109.23C297.894 109.23 297.894 109.23 297.895 109.229L330.142 90.5886Z" fill="#F7C11D" stroke="white" stroke-width="4"/>
<path d="M302.529 246.85L302.524 246.847C300.326 245.569 297.507 246.315 296.229 248.513C294.951 250.711 295.696 253.529 297.893 254.807C297.894 254.808 297.894 254.808 297.895 254.809L330.142 273.449L330.147 273.452C332.345 274.73 335.164 273.984 336.442 271.786L302.529 246.85ZM302.529 246.85L334.776 265.49M302.529 246.85L334.776 265.49M334.776 265.49C334.777 265.491 334.778 265.491 334.779 265.492M334.776 265.49L334.779 265.492M334.779 265.492C336.975 266.77 337.72 269.587 336.442 271.786L334.779 265.492Z" fill="#F7C11D" stroke="white" stroke-width="4"/>
<path d="M31.8863 90.5861L31.8907 90.5886L64.1382 109.229C64.1389 109.23 64.1396 109.23 64.1404 109.231C66.3367 110.509 67.0821 113.326 65.804 115.525C64.5259 117.723 61.707 118.469 59.5087 117.191L59.5043 117.188L27.2568 98.5476C27.2561 98.5472 27.2554 98.5468 27.2547 98.5464C25.0582 97.2678 24.313 94.4498 25.5908 92.2521C26.8688 90.054 29.6879 89.3079 31.8863 90.5861Z" fill="#E6E7E8" stroke="white" stroke-width="4"/>
<path d="M176.407 6.29879L176.408 6.29701C176.597 3.74065 178.823 1.82315 181.378 2.01307C183.933 2.20298 185.852 4.42866 185.662 6.98522L185.657 7.05898V7.13295V44.3457C185.657 46.9069 183.583 48.9828 181.022 48.9858C178.484 48.9688 176.43 46.9145 176.413 44.3762V7.13204V7.05693L176.407 6.98204C176.39 6.75445 176.39 6.52638 176.407 6.29879Z" fill="#E6E7E8" stroke="white" stroke-width="4"/>
<path d="M116.17 60.4928L116.167 60.487L97.5635 28.2409C97.563 28.24 97.5625 28.2391 97.5619 28.2381C96.2831 26.0422 93.4655 25.2973 91.268 26.5749C89.0699 27.853 88.3238 30.6721 89.602 32.8704L89.6054 32.8763L89.6054 32.8763L108.209 65.1223C108.209 65.1233 108.21 65.1242 108.211 65.1252C109.489 67.3209 112.307 68.0659 114.504 66.7885L116.17 60.4928ZM116.17 60.4928C117.448 62.6908 116.703 65.5091 114.504 66.7883L116.17 60.4928Z" fill="#E6E7E8" stroke="white" stroke-width="4"/>
<path d="M360.019 181.638L360.019 181.638C360.207 184.172 358.325 186.381 355.804 186.603H318.634H318.559L318.484 186.609C318.257 186.626 318.028 186.626 317.8 186.609L317.798 186.609C315.242 186.419 313.324 184.194 313.514 181.638C313.704 179.082 315.929 177.164 318.485 177.354L318.559 177.36H318.633H355.803C358.063 177.56 359.851 179.369 360.019 181.638Z" fill="#F7C11D" stroke="white" stroke-width="4"/>
<path d="M44.2322 177.392L44.2345 177.392C46.79 177.581 48.7079 179.806 48.5179 182.362C48.328 184.919 46.1028 186.836 43.5472 186.646L43.4732 186.641H43.399H6.2295C3.96934 186.44 2.18159 184.631 2.01307 182.362L2.01306 182.362C1.82483 179.83 3.70714 177.621 6.22953 177.397H43.399H43.4741L43.549 177.391C43.7765 177.374 44.0046 177.374 44.2322 177.392Z" fill="#E6E7E8" stroke="white" stroke-width="4"/>
<path d="M246.041 60.4998L246.041 60.4998L246.048 60.4884L264.689 28.2409C264.689 28.2401 264.689 28.2393 264.69 28.2386C265.969 26.0423 268.786 25.2972 270.984 26.5749C273.182 27.8529 273.928 30.6712 272.65 32.8707L272.648 32.8748L254.015 65.108C254.015 65.108 254.015 65.1081 254.015 65.1081C254.009 65.1179 253.998 65.1363 253.984 65.1604C252.703 67.3449 249.898 68.0837 247.707 66.8146C247.699 66.8101 247.689 66.8042 247.678 66.7973C245.488 65.51 244.755 62.6915 246.041 60.4998Z" fill="#F7C11D" stroke="white" stroke-width="4"/>
<path d="M59.5043 246.813L59.5087 246.811C61.707 245.532 64.5261 246.279 65.8042 248.477C67.0818 250.674 66.337 253.492 64.1398 254.771C64.1392 254.772 64.1385 254.772 64.1378 254.772L31.8907 273.413L31.8863 273.416C29.6879 274.694 26.8688 273.948 25.5908 271.75C24.313 269.552 25.0582 266.734 27.2545 265.455C27.2553 265.455 27.256 265.454 27.2568 265.454L59.5043 246.813Z" fill="#E6E7E8" stroke="white" stroke-width="4"/>
</svg>
